<?xml version="1.0" encoding="UTF-8"?>
<svg id="Layer_1" data-name="Layer 1" xmlns="http://www.w3.org/2000/svg" viewBox="0 0 158 158">
  <defs>
    <style>
      .cls-1 {
        fill: #fff;
        stroke: #fff;
        stroke-miterlimit: 10;
      }
    </style>
  </defs>
  <g>
    <g>
      <path class="cls-1" d="M131.56,78.17v.34h-25.69v-.34c.32-17.8,49.93-28.5,51.59-25.7,1.26,2.12-25.5,11.32-25.9,25.7Z"/>
      <path class="cls-1" d="M90.77.51c2.31-.46,3.1,25.06,16.36,29.16,13.19,4.08,29.05-16.04,30.6-14.41,2.03,2.14-21.74,41.02-37.99,35.92-16.25-5.1-11.99-50.06-8.97-50.67Z"/>
    </g>
    <g>
      <path class="cls-1" d="M131.56,79.83v-.34h-25.69v.34c.32,17.8,49.93,28.5,51.59,25.7,1.26-2.12-25.5-11.32-25.9-25.7Z"/>
      <path class="cls-1" d="M90.77,157.49c2.31.46,3.1-25.06,16.36-29.16,13.19-4.08,29.05,16.04,30.6,14.41,2.03-2.14-21.74-41.02-37.99-35.92-16.25,5.1-11.99,50.06-8.97,50.67Z"/>
    </g>
  </g>
  <g>
    <g>
      <path class="cls-1" d="M26.44,78.17v.34s25.69,0,25.69,0v-.34c-.32-17.8-49.93-28.5-51.59-25.7-1.26,2.12,25.5,11.32,25.9,25.7Z"/>
      <path class="cls-1" d="M67.23.51c-2.31-.46-3.1,25.06-16.36,29.16-13.19,4.08-29.05-16.04-30.6-14.41-2.03,2.14,21.74,41.02,37.99,35.92,16.25-5.1,11.99-50.06,8.97-50.67Z"/>
    </g>
    <g>
      <path class="cls-1" d="M26.44,79.83v-.34h25.69v.34c-.32,17.8-49.93,28.5-51.59,25.7-1.26-2.12,25.5-11.32,25.9-25.7Z"/>
      <path class="cls-1" d="M67.23,157.49c-2.31.46-3.1-25.06-16.36-29.16-13.19-4.08-29.05,16.04-30.6,14.41-2.03-2.14,21.74-41.02,37.99-35.92,16.25,5.1,11.99,50.06,8.97,50.67Z"/>
    </g>
  </g>
</svg>